# This file uses centimeters as units for non-parametric coordinates.

mtllib EiffelTowerCar_orgin.mtl
g default
v -44353.308594 0.000000 0.000000
v 0.000000 0.000000 0.000000
v -44353.308594 44353.308594 0.000000
v 0.000000 44353.308594 0.000000
vt 0.000000 0.000000
vt 1.000000 0.000000
vt 0.000000 1.000000
vt 1.000000 1.000000
vn 0.000000 -0.000000 1.000000
vn 0.000000 -0.000000 1.000000
vn 0.000000 -0.000000 1.000000
vn 0.000000 -0.000000 1.000000
s off
g EiffellTower
usemtl blinn14SG
f 1/1/1 2/2/2 4/4/3 3/3/4
